<svg xmlns="http://www.w3.org/2000/svg" viewBox="0 0 760 520">
  <title>Bright Ideas Children's Museum Floor Map</title>
  <desc>Two-level museum map with exhibit rooms, legend, elevator route, family rest area, and Story Stage show times.</desc>
  <rect x="20" y="20" width="720" height="480" fill="#ffffff" stroke="#111827" stroke-width="3"/>
  <text x="380" y="54" text-anchor="middle" font-family="Arial" font-size="24" font-weight="700" fill="#111827">Bright Ideas Children's Museum Floor Map</text>

  <rect x="60" y="92" width="280" height="290" fill="#f8fafc" stroke="#334155" stroke-width="2"/>
  <text x="200" y="122" text-anchor="middle" font-family="Arial" font-size="18" font-weight="700" fill="#111827">Level 1</text>
  <rect x="88" y="150" width="98" height="58" fill="#dbeafe" stroke="#1d4ed8" stroke-width="2"/>
  <text x="137" y="174" text-anchor="middle" font-family="Arial" font-size="13" font-weight="700" fill="#111827">Entrance</text>
  <text x="137" y="192" text-anchor="middle" font-family="Arial" font-size="12" fill="#111827">Star symbol</text>
  <rect x="208" y="150" width="104" height="58" fill="#fee2e2" stroke="#b91c1c" stroke-width="2"/>
  <text x="260" y="174" text-anchor="middle" font-family="Arial" font-size="13" font-weight="700" fill="#111827">Build Lab</text>
  <text x="260" y="192" text-anchor="middle" font-family="Arial" font-size="12" fill="#111827">Blocks + ramps</text>
  <rect x="88" y="230" width="104" height="58" fill="#fef3c7" stroke="#b45309" stroke-width="2"/>
  <text x="140" y="254" text-anchor="middle" font-family="Arial" font-size="13" font-weight="700" fill="#111827">Story Stage</text>
  <text x="140" y="272" text-anchor="middle" font-family="Arial" font-size="12" fill="#111827">Book symbol</text>
  <rect x="208" y="230" width="104" height="58" fill="#f1f5f9" stroke="#475569" stroke-width="2"/>
  <text x="260" y="254" text-anchor="middle" font-family="Arial" font-size="13" font-weight="700" fill="#111827">Quiet Corner</text>
  <text x="260" y="272" text-anchor="middle" font-family="Arial" font-size="12" fill="#111827">Rest + read</text>
  <rect x="88" y="312" width="104" height="46" fill="#dcfce7" stroke="#15803d" stroke-width="2"/>
  <text x="140" y="340" text-anchor="middle" font-family="Arial" font-size="13" font-weight="700" fill="#111827">Elevator</text>
  <rect x="208" y="312" width="104" height="46" fill="#e5e7eb" stroke="#374151" stroke-width="2"/>
  <text x="260" y="340" text-anchor="middle" font-family="Arial" font-size="13" font-weight="700" fill="#111827">Stairs</text>

  <rect x="420" y="92" width="280" height="290" fill="#f8fafc" stroke="#334155" stroke-width="2"/>
  <text x="560" y="122" text-anchor="middle" font-family="Arial" font-size="18" font-weight="700" fill="#111827">Level 2</text>
  <rect x="448" y="150" width="104" height="58" fill="#ede9fe" stroke="#6d28d9" stroke-width="2"/>
  <text x="500" y="174" text-anchor="middle" font-family="Arial" font-size="13" font-weight="700" fill="#111827">Art Studio</text>
  <text x="500" y="192" text-anchor="middle" font-family="Arial" font-size="12" fill="#111827">Draw + paint</text>
  <rect x="568" y="150" width="104" height="58" fill="#ffedd5" stroke="#c2410c" stroke-width="2"/>
  <text x="620" y="174" text-anchor="middle" font-family="Arial" font-size="13" font-weight="700" fill="#111827">Dinosaur Dig</text>
  <text x="620" y="192" text-anchor="middle" font-family="Arial" font-size="12" fill="#111827">Fossil area</text>
  <rect x="448" y="230" width="104" height="58" fill="#dcfce7" stroke="#15803d" stroke-width="2"/>
  <text x="500" y="254" text-anchor="middle" font-family="Arial" font-size="13" font-weight="700" fill="#111827">Elevator</text>
  <text x="500" y="272" text-anchor="middle" font-family="Arial" font-size="12" fill="#111827">Accessible route</text>
  <rect x="568" y="230" width="104" height="58" fill="#e5e7eb" stroke="#374151" stroke-width="2"/>
  <text x="620" y="254" text-anchor="middle" font-family="Arial" font-size="13" font-weight="700" fill="#111827">Stairs</text>
  <rect x="448" y="312" width="224" height="46" fill="#cffafe" stroke="#0e7490" stroke-width="2"/>
  <text x="560" y="340" text-anchor="middle" font-family="Arial" font-size="13" font-weight="700" fill="#111827">Family Rest Area</text>

  <polyline points="137,150 137,335 500,335 500,259 620,259 620,209" fill="none" stroke="#15803d" stroke-width="5" stroke-dasharray="10 6"/>
  <polygon points="620,209 610,229 630,229" fill="#15803d"/>
  <text x="364" y="326" text-anchor="middle" font-family="Arial" font-size="14" font-weight="700" fill="#15803d">Accessible route: Entrance to Elevator to Dinosaur Dig</text>

  <rect x="60" y="410" width="300" height="64" fill="#f8fafc" stroke="#334155" stroke-width="2"/>
  <text x="78" y="434" font-family="Arial" font-size="13" font-weight="700" fill="#111827">Legend</text>
  <text x="78" y="456" font-family="Arial" font-size="12" fill="#111827">Star = Entrance · Book = Story Stage · Green dashed line = accessible route</text>

  <rect x="420" y="410" width="280" height="64" fill="#f8fafc" stroke="#334155" stroke-width="2"/>
  <text x="438" y="434" font-family="Arial" font-size="13" font-weight="700" fill="#111827">Story Stage show times</text>
  <text x="438" y="456" font-family="Arial" font-size="13" fill="#111827">11:00 · 1:00 · 3:00</text>
</svg>
